<mxfile host="app.diagrams.net" modified="2021-10-06T16:44:27.380Z" agent="5.0 (Windows NT 10.0; Win64; x64) AppleWebKit/537.36 (KHTML, like Gecko) Chrome/94.0.4606.71 Safari/537.36" etag="b5AlGTiiI264Asgz2KPk" version="14.3.0" type="github">
  <diagram name="Page-1" id="b98fa263-6416-c6ec-5b7d-78bf54ef71d0">
    <mxGraphModel dx="2622" dy="1543" grid="0" gridSize="10" guides="1" tooltips="1" connect="1" arrows="1" fold="1" page="0" pageScale="1.5" pageWidth="827" pageHeight="1169" background="none" math="0" shadow="0">
      <root>
        <mxCell id="0" style=";html=1;" />
        <mxCell id="1" style=";html=1;" parent="0" />
        <mxCell id="pMGXM-O-2ihCk8tD-NnK-10" style="edgeStyle=orthogonalEdgeStyle;rounded=0;orthogonalLoop=1;jettySize=auto;html=1;exitX=0.5;exitY=1;exitDx=0;exitDy=0;entryX=0.5;entryY=0;entryDx=0;entryDy=0;fontSize=18;" edge="1" parent="1" source="pMGXM-O-2ihCk8tD-NnK-1" target="pMGXM-O-2ihCk8tD-NnK-5">
          <mxGeometry relative="1" as="geometry" />
        </mxCell>
        <mxCell id="pMGXM-O-2ihCk8tD-NnK-1" value="&lt;p class=&quot;MsoNormal&quot; style=&quot;margin-bottom: 0.0001pt; line-height: normal; font-size: 18px;&quot;&gt;&lt;span style=&quot;font-size: 18px; line-height: 107%; font-family: calibri, sans-serif;&quot;&gt;Bongbokhang&lt;/span&gt;&lt;br style=&quot;font-size: 18px;&quot;&gt;&lt;/p&gt;" style="whiteSpace=wrap;html=1;rounded=1;shadow=1;strokeWidth=1;fontSize=18;align=center;fillColor=#f5f5f5;strokeColor=#666666;" vertex="1" parent="1">
          <mxGeometry x="600" y="-120" width="242" height="40" as="geometry" />
        </mxCell>
        <mxCell id="pMGXM-O-2ihCk8tD-NnK-9" style="edgeStyle=orthogonalEdgeStyle;rounded=0;orthogonalLoop=1;jettySize=auto;html=1;exitX=0.5;exitY=1;exitDx=0;exitDy=0;entryX=0.5;entryY=0;entryDx=0;entryDy=0;fontSize=18;" edge="1" parent="1" source="pMGXM-O-2ihCk8tD-NnK-2" target="pMGXM-O-2ihCk8tD-NnK-1">
          <mxGeometry relative="1" as="geometry" />
        </mxCell>
        <mxCell id="pMGXM-O-2ihCk8tD-NnK-2" value="&lt;p class=&quot;MsoNormal&quot; style=&quot;margin-bottom: 0.0001pt; line-height: normal; font-size: 18px;&quot;&gt;&lt;span style=&quot;font-size: 18px;&quot;&gt;Sadehang&lt;/span&gt;&lt;/p&gt;" style="whiteSpace=wrap;html=1;rounded=1;shadow=1;strokeWidth=1;fontSize=18;align=center;fillColor=#f5f5f5;strokeColor=#666666;" vertex="1" parent="1">
          <mxGeometry x="600" y="-200" width="242" height="40" as="geometry" />
        </mxCell>
        <mxCell id="pMGXM-O-2ihCk8tD-NnK-8" style="edgeStyle=orthogonalEdgeStyle;rounded=0;orthogonalLoop=1;jettySize=auto;html=1;exitX=0.5;exitY=1;exitDx=0;exitDy=0;fontSize=18;" edge="1" parent="1" source="pMGXM-O-2ihCk8tD-NnK-3" target="pMGXM-O-2ihCk8tD-NnK-2">
          <mxGeometry relative="1" as="geometry" />
        </mxCell>
        <mxCell id="pMGXM-O-2ihCk8tD-NnK-3" value="&lt;p class=&quot;MsoNormal&quot; style=&quot;margin-bottom: 0.0001pt; line-height: normal; font-size: 18px;&quot;&gt;&lt;span style=&quot;font-size: 18px; line-height: 107%; font-family: calibri, sans-serif;&quot;&gt;Youlunghang&lt;/span&gt;&lt;br style=&quot;font-size: 18px;&quot;&gt;&lt;/p&gt;" style="whiteSpace=wrap;html=1;rounded=1;shadow=1;strokeWidth=1;fontSize=18;align=center;fillColor=#f5f5f5;strokeColor=#666666;" vertex="1" parent="1">
          <mxGeometry x="600" y="-280" width="242" height="40" as="geometry" />
        </mxCell>
        <mxCell id="pMGXM-O-2ihCk8tD-NnK-7" style="edgeStyle=orthogonalEdgeStyle;rounded=0;orthogonalLoop=1;jettySize=auto;html=1;exitX=0.5;exitY=1;exitDx=0;exitDy=0;fontSize=18;" edge="1" parent="1" source="pMGXM-O-2ihCk8tD-NnK-4" target="pMGXM-O-2ihCk8tD-NnK-3">
          <mxGeometry relative="1" as="geometry" />
        </mxCell>
        <mxCell id="pMGXM-O-2ihCk8tD-NnK-4" value="&lt;p class=&quot;MsoNormal&quot; style=&quot;margin-bottom: 0.0001pt; line-height: normal; font-size: 18px;&quot;&gt;&lt;span style=&quot;font-size: 18px;&quot;&gt;Mudokhang&lt;/span&gt;&lt;/p&gt;" style="whiteSpace=wrap;html=1;rounded=1;shadow=1;strokeWidth=1;fontSize=18;align=center;fillColor=#f5f5f5;strokeColor=#666666;" vertex="1" parent="1">
          <mxGeometry x="600" y="-360" width="242" height="40" as="geometry" />
        </mxCell>
        <mxCell id="pMGXM-O-2ihCk8tD-NnK-5" value="&lt;p class=&quot;MsoNormal&quot; style=&quot;margin-bottom: 0.0001pt; line-height: normal; font-size: 18px;&quot;&gt;&lt;span style=&quot;font-size: 18px;&quot;&gt;Yousehang&lt;/span&gt;&lt;/p&gt;" style="whiteSpace=wrap;html=1;rounded=1;shadow=1;strokeWidth=1;fontSize=18;align=center;fillColor=#f5f5f5;strokeColor=#666666;" vertex="1" parent="1">
          <mxGeometry x="600" y="-40" width="242" height="40" as="geometry" />
        </mxCell>
        <mxCell id="pMGXM-O-2ihCk8tD-NnK-11" style="edgeStyle=orthogonalEdgeStyle;rounded=0;orthogonalLoop=1;jettySize=auto;html=1;exitX=0.5;exitY=1;exitDx=0;exitDy=0;entryX=0.5;entryY=0;entryDx=0;entryDy=0;fontSize=18;" edge="1" parent="1">
          <mxGeometry relative="1" as="geometry">
            <mxPoint x="720.9999999999998" as="sourcePoint" />
            <mxPoint x="720.9999999999998" y="40" as="targetPoint" />
          </mxGeometry>
        </mxCell>
        <mxCell id="pMGXM-O-2ihCk8tD-NnK-16" style="edgeStyle=orthogonalEdgeStyle;rounded=0;orthogonalLoop=1;jettySize=auto;html=1;exitX=0.5;exitY=1;exitDx=0;exitDy=0;fontSize=18;" edge="1" parent="1" source="pMGXM-O-2ihCk8tD-NnK-13" target="pMGXM-O-2ihCk8tD-NnK-14">
          <mxGeometry relative="1" as="geometry" />
        </mxCell>
        <mxCell id="pMGXM-O-2ihCk8tD-NnK-20" style="edgeStyle=orthogonalEdgeStyle;rounded=0;orthogonalLoop=1;jettySize=auto;html=1;fontSize=18;" edge="1" parent="1" source="pMGXM-O-2ihCk8tD-NnK-13" target="pMGXM-O-2ihCk8tD-NnK-15">
          <mxGeometry relative="1" as="geometry" />
        </mxCell>
        <mxCell id="pMGXM-O-2ihCk8tD-NnK-13" value="&lt;p class=&quot;MsoNormal&quot; style=&quot;margin-bottom: 0.0001pt; line-height: normal; font-size: 18px;&quot;&gt;&lt;span style=&quot;font-size: 18px; line-height: 107%; font-family: calibri, sans-serif;&quot;&gt;Hasokhang&lt;/span&gt;&lt;br style=&quot;font-size: 18px;&quot;&gt;&lt;/p&gt;" style="whiteSpace=wrap;html=1;rounded=1;shadow=1;strokeWidth=1;fontSize=18;align=center;fillColor=#f5f5f5;strokeColor=#666666;" vertex="1" parent="1">
          <mxGeometry x="600" y="40" width="242" height="40" as="geometry" />
        </mxCell>
        <mxCell id="pMGXM-O-2ihCk8tD-NnK-22" style="edgeStyle=orthogonalEdgeStyle;rounded=0;orthogonalLoop=1;jettySize=auto;html=1;exitX=0.5;exitY=1;exitDx=0;exitDy=0;entryX=0.5;entryY=0;entryDx=0;entryDy=0;fontSize=18;" edge="1" parent="1" source="pMGXM-O-2ihCk8tD-NnK-14" target="pMGXM-O-2ihCk8tD-NnK-21">
          <mxGeometry relative="1" as="geometry" />
        </mxCell>
        <mxCell id="pMGXM-O-2ihCk8tD-NnK-14" value="&lt;p class=&quot;MsoNormal&quot; style=&quot;margin-bottom: 0.0001pt; line-height: normal; font-size: 18px;&quot;&gt;&lt;span style=&quot;font-size: 18px; line-height: 107%; font-family: calibri, sans-serif;&quot;&gt;Kaju Rai&amp;nbsp; &amp;nbsp;&amp;nbsp;&lt;/span&gt;&lt;br style=&quot;font-size: 18px;&quot;&gt;&lt;/p&gt;" style="whiteSpace=wrap;html=1;rounded=1;shadow=1;strokeWidth=1;fontSize=18;align=center;fillColor=#f5f5f5;strokeColor=#666666;" vertex="1" parent="1">
          <mxGeometry x="358" y="120" width="242" height="40" as="geometry" />
        </mxCell>
        <mxCell id="pMGXM-O-2ihCk8tD-NnK-15" value="&lt;p class=&quot;MsoNormal&quot; style=&quot;margin-bottom: 0.0001pt; line-height: normal; font-size: 18px;&quot;&gt;&lt;span style=&quot;font-size: 18px; line-height: 107%; font-family: calibri, sans-serif;&quot;&gt;Putuhang&lt;/span&gt;&lt;br style=&quot;font-size: 18px;&quot;&gt;&lt;/p&gt;" style="whiteSpace=wrap;html=1;rounded=1;shadow=1;strokeWidth=1;fontSize=18;align=center;fillColor=#f5f5f5;strokeColor=#666666;" vertex="1" parent="1">
          <mxGeometry x="842" y="120" width="242" height="40" as="geometry" />
        </mxCell>
        <mxCell id="pMGXM-O-2ihCk8tD-NnK-25" style="edgeStyle=orthogonalEdgeStyle;rounded=0;orthogonalLoop=1;jettySize=auto;html=1;exitX=0.5;exitY=1;exitDx=0;exitDy=0;entryX=0.5;entryY=0;entryDx=0;entryDy=0;fontSize=18;" edge="1" parent="1" source="pMGXM-O-2ihCk8tD-NnK-21" target="pMGXM-O-2ihCk8tD-NnK-24">
          <mxGeometry relative="1" as="geometry" />
        </mxCell>
        <mxCell id="pMGXM-O-2ihCk8tD-NnK-27" style="edgeStyle=orthogonalEdgeStyle;rounded=0;orthogonalLoop=1;jettySize=auto;html=1;exitX=0.5;exitY=1;exitDx=0;exitDy=0;fontSize=18;" edge="1" parent="1" source="pMGXM-O-2ihCk8tD-NnK-21" target="pMGXM-O-2ihCk8tD-NnK-26">
          <mxGeometry relative="1" as="geometry" />
        </mxCell>
        <mxCell id="pMGXM-O-2ihCk8tD-NnK-21" value="&lt;p class=&quot;MsoNormal&quot; style=&quot;margin-bottom: 0.0001pt; line-height: normal; font-size: 18px;&quot;&gt;&lt;span style=&quot;font-size: 18px; line-height: 107%; font-family: calibri, sans-serif;&quot;&gt;Bhim Rai&amp;nbsp;&amp;nbsp;&lt;/span&gt;&lt;br style=&quot;font-size: 18px;&quot;&gt;&lt;/p&gt;" style="whiteSpace=wrap;html=1;rounded=1;shadow=1;strokeWidth=1;fontSize=18;align=center;fillColor=#f5f5f5;strokeColor=#666666;" vertex="1" parent="1">
          <mxGeometry x="358" y="200" width="242" height="40" as="geometry" />
        </mxCell>
        <mxCell id="pMGXM-O-2ihCk8tD-NnK-24" value="&lt;p class=&quot;MsoNormal&quot; style=&quot;margin-bottom: 0.0001pt; line-height: normal; font-size: 18px;&quot;&gt;&lt;span style=&quot;font-size: 18px; line-height: 107%; font-family: calibri, sans-serif;&quot;&gt;Phugonhang/Sumahang - disconnected&amp;nbsp;&lt;/span&gt;&lt;br style=&quot;font-size: 18px;&quot;&gt;&lt;/p&gt;" style="whiteSpace=wrap;html=1;rounded=1;shadow=1;strokeWidth=1;fontSize=18;align=center;fillColor=#f5f5f5;strokeColor=#666666;" vertex="1" parent="1">
          <mxGeometry x="40" y="280" width="318" height="40" as="geometry" />
        </mxCell>
        <mxCell id="pMGXM-O-2ihCk8tD-NnK-31" style="edgeStyle=orthogonalEdgeStyle;rounded=0;orthogonalLoop=1;jettySize=auto;html=1;exitX=0.5;exitY=1;exitDx=0;exitDy=0;entryX=0.5;entryY=0;entryDx=0;entryDy=0;fontSize=18;" edge="1" parent="1" source="pMGXM-O-2ihCk8tD-NnK-26" target="pMGXM-O-2ihCk8tD-NnK-28">
          <mxGeometry relative="1" as="geometry" />
        </mxCell>
        <mxCell id="pMGXM-O-2ihCk8tD-NnK-32" style="edgeStyle=orthogonalEdgeStyle;rounded=0;orthogonalLoop=1;jettySize=auto;html=1;exitX=0.5;exitY=1;exitDx=0;exitDy=0;fontSize=18;" edge="1" parent="1" source="pMGXM-O-2ihCk8tD-NnK-26" target="pMGXM-O-2ihCk8tD-NnK-29">
          <mxGeometry relative="1" as="geometry" />
        </mxCell>
        <mxCell id="pMGXM-O-2ihCk8tD-NnK-26" value="&lt;p class=&quot;MsoNormal&quot; style=&quot;margin-bottom: 0.0001pt; line-height: normal; font-size: 18px;&quot;&gt;&lt;span style=&quot;font-size: 18px; line-height: 107%; font-family: calibri, sans-serif;&quot;&gt;Tosaahang&lt;/span&gt;&lt;br style=&quot;font-size: 18px;&quot;&gt;&lt;/p&gt;" style="whiteSpace=wrap;html=1;rounded=1;shadow=1;strokeWidth=1;fontSize=18;align=center;fillColor=#f5f5f5;strokeColor=#666666;" vertex="1" parent="1">
          <mxGeometry x="600" y="280" width="242" height="40" as="geometry" />
        </mxCell>
        <mxCell id="pMGXM-O-2ihCk8tD-NnK-34" style="edgeStyle=orthogonalEdgeStyle;rounded=0;orthogonalLoop=1;jettySize=auto;html=1;exitX=0.5;exitY=1;exitDx=0;exitDy=0;entryX=0.5;entryY=0;entryDx=0;entryDy=0;fontSize=18;" edge="1" parent="1" source="pMGXM-O-2ihCk8tD-NnK-28" target="pMGXM-O-2ihCk8tD-NnK-33">
          <mxGeometry relative="1" as="geometry" />
        </mxCell>
        <mxCell id="pMGXM-O-2ihCk8tD-NnK-28" value="&lt;p class=&quot;MsoNormal&quot; style=&quot;margin-bottom: 0.0001pt; line-height: normal; font-size: 18px;&quot;&gt;&lt;span style=&quot;font-size: 18px; line-height: 107%; font-family: calibri, sans-serif;&quot;&gt;Hiju Rai&lt;/span&gt;&lt;br style=&quot;font-size: 18px;&quot;&gt;&lt;/p&gt;" style="whiteSpace=wrap;html=1;rounded=1;shadow=1;strokeWidth=1;fontSize=18;align=center;fillColor=#f5f5f5;strokeColor=#666666;" vertex="1" parent="1">
          <mxGeometry x="358" y="360" width="242" height="40" as="geometry" />
        </mxCell>
        <mxCell id="pMGXM-O-2ihCk8tD-NnK-47" style="edgeStyle=orthogonalEdgeStyle;rounded=0;orthogonalLoop=1;jettySize=auto;html=1;exitX=0.5;exitY=1;exitDx=0;exitDy=0;fontSize=18;" edge="1" parent="1" source="pMGXM-O-2ihCk8tD-NnK-29" target="pMGXM-O-2ihCk8tD-NnK-41">
          <mxGeometry relative="1" as="geometry" />
        </mxCell>
        <mxCell id="pMGXM-O-2ihCk8tD-NnK-48" style="edgeStyle=orthogonalEdgeStyle;rounded=0;orthogonalLoop=1;jettySize=auto;html=1;fontSize=18;" edge="1" parent="1" source="pMGXM-O-2ihCk8tD-NnK-29" target="pMGXM-O-2ihCk8tD-NnK-42">
          <mxGeometry relative="1" as="geometry" />
        </mxCell>
        <mxCell id="pMGXM-O-2ihCk8tD-NnK-49" style="edgeStyle=orthogonalEdgeStyle;rounded=0;orthogonalLoop=1;jettySize=auto;html=1;entryX=0.5;entryY=0;entryDx=0;entryDy=0;fontSize=18;" edge="1" parent="1" target="pMGXM-O-2ihCk8tD-NnK-45">
          <mxGeometry relative="1" as="geometry">
            <mxPoint x="1501" y="440" as="sourcePoint" />
          </mxGeometry>
        </mxCell>
        <mxCell id="pMGXM-O-2ihCk8tD-NnK-52" style="edgeStyle=orthogonalEdgeStyle;rounded=0;orthogonalLoop=1;jettySize=auto;html=1;fontSize=18;" edge="1" parent="1" source="pMGXM-O-2ihCk8tD-NnK-29" target="pMGXM-O-2ihCk8tD-NnK-44">
          <mxGeometry relative="1" as="geometry" />
        </mxCell>
        <mxCell id="pMGXM-O-2ihCk8tD-NnK-29" value="&lt;p class=&quot;MsoNormal&quot; style=&quot;margin-bottom: 0.0001pt; line-height: normal; font-size: 18px;&quot;&gt;&lt;span style=&quot;font-size: 18px; line-height: 107%; font-family: calibri, sans-serif;&quot;&gt;Sayahang&lt;/span&gt;&lt;br style=&quot;font-size: 18px;&quot;&gt;&lt;/p&gt;" style="whiteSpace=wrap;html=1;rounded=1;shadow=1;strokeWidth=1;fontSize=18;align=center;fillColor=#f5f5f5;strokeColor=#666666;" vertex="1" parent="1">
          <mxGeometry x="1380" y="360" width="242" height="40" as="geometry" />
        </mxCell>
        <mxCell id="pMGXM-O-2ihCk8tD-NnK-37" style="edgeStyle=orthogonalEdgeStyle;rounded=0;orthogonalLoop=1;jettySize=auto;html=1;exitX=0.5;exitY=1;exitDx=0;exitDy=0;entryX=0.5;entryY=0;entryDx=0;entryDy=0;fontSize=18;" edge="1" parent="1" source="pMGXM-O-2ihCk8tD-NnK-33" target="pMGXM-O-2ihCk8tD-NnK-35">
          <mxGeometry relative="1" as="geometry" />
        </mxCell>
        <mxCell id="pMGXM-O-2ihCk8tD-NnK-40" style="edgeStyle=orthogonalEdgeStyle;rounded=0;orthogonalLoop=1;jettySize=auto;html=1;exitX=0.5;exitY=1;exitDx=0;exitDy=0;fontSize=18;" edge="1" parent="1" source="pMGXM-O-2ihCk8tD-NnK-33" target="pMGXM-O-2ihCk8tD-NnK-36">
          <mxGeometry relative="1" as="geometry" />
        </mxCell>
        <mxCell id="pMGXM-O-2ihCk8tD-NnK-33" value="&lt;p class=&quot;MsoNormal&quot; style=&quot;margin-bottom: 0.0001pt; line-height: normal; font-size: 18px;&quot;&gt;&lt;span style=&quot;font-size: 18px; line-height: 107%; font-family: calibri, sans-serif;&quot;&gt;Dharma Rai&lt;/span&gt;&lt;br style=&quot;font-size: 18px;&quot;&gt;&lt;/p&gt;" style="whiteSpace=wrap;html=1;rounded=1;shadow=1;strokeWidth=1;fontSize=18;align=center;fillColor=#f5f5f5;strokeColor=#666666;" vertex="1" parent="1">
          <mxGeometry x="358" y="440" width="242" height="40" as="geometry" />
        </mxCell>
        <mxCell id="pMGXM-O-2ihCk8tD-NnK-35" value="&lt;p class=&quot;MsoNormal&quot; style=&quot;margin-bottom: 0.0001pt; line-height: normal; font-size: 18px;&quot;&gt;&lt;span style=&quot;font-size: 18px; line-height: 107%; font-family: calibri, sans-serif;&quot;&gt;Pereju&lt;/span&gt;&lt;br style=&quot;font-size: 18px;&quot;&gt;&lt;/p&gt;" style="whiteSpace=wrap;html=1;rounded=1;shadow=1;strokeWidth=1;fontSize=18;align=center;fillColor=#f5f5f5;strokeColor=#666666;" vertex="1" parent="1">
          <mxGeometry x="150" y="520" width="242" height="40" as="geometry" />
        </mxCell>
        <mxCell id="pMGXM-O-2ihCk8tD-NnK-142" style="edgeStyle=orthogonalEdgeStyle;rounded=0;orthogonalLoop=1;jettySize=auto;html=1;exitX=0.5;exitY=1;exitDx=0;exitDy=0;fontSize=18;" edge="1" parent="1" source="pMGXM-O-2ihCk8tD-NnK-36" target="pMGXM-O-2ihCk8tD-NnK-140">
          <mxGeometry relative="1" as="geometry">
            <mxPoint x="582.9999999999998" y="560" as="sourcePoint" />
          </mxGeometry>
        </mxCell>
        <mxCell id="pMGXM-O-2ihCk8tD-NnK-143" style="edgeStyle=orthogonalEdgeStyle;rounded=0;orthogonalLoop=1;jettySize=auto;html=1;exitX=0.5;exitY=1;exitDx=0;exitDy=0;entryX=0.5;entryY=0;entryDx=0;entryDy=0;fontSize=18;" edge="1" parent="1" source="pMGXM-O-2ihCk8tD-NnK-36" target="pMGXM-O-2ihCk8tD-NnK-141">
          <mxGeometry relative="1" as="geometry">
            <mxPoint x="582.9999999999998" y="560" as="sourcePoint" />
          </mxGeometry>
        </mxCell>
        <mxCell id="pMGXM-O-2ihCk8tD-NnK-36" value="&lt;p class=&quot;MsoNormal&quot; style=&quot;margin-bottom: 0.0001pt; line-height: normal; font-size: 18px;&quot;&gt;&lt;span style=&quot;font-size: 18px; line-height: 107%; font-family: calibri, sans-serif;&quot;&gt;Bhudya&lt;/span&gt;&lt;br style=&quot;font-size: 18px;&quot;&gt;&lt;/p&gt;" style="whiteSpace=wrap;html=1;rounded=1;shadow=1;strokeWidth=1;fontSize=18;align=center;fillColor=#f5f5f5;strokeColor=#666666;" vertex="1" parent="1">
          <mxGeometry x="510" y="520" width="242" height="40" as="geometry" />
        </mxCell>
        <mxCell id="pMGXM-O-2ihCk8tD-NnK-41" value="&lt;p class=&quot;MsoNormal&quot; style=&quot;margin-bottom: 0.0001pt; line-height: normal; font-size: 18px;&quot;&gt;&lt;span style=&quot;font-size: 18px; line-height: 107%; font-family: calibri, sans-serif;&quot;&gt;Pangehang &amp;nbsp;&amp;nbsp;&amp;nbsp;&amp;nbsp;&amp;nbsp;&amp;nbsp; &amp;nbsp; &amp;nbsp;&amp;nbsp;&lt;/span&gt;&lt;br style=&quot;font-size: 18px;&quot;&gt;&lt;/p&gt;" style="whiteSpace=wrap;html=1;rounded=1;shadow=1;strokeWidth=1;fontSize=18;align=center;fillColor=#f5f5f5;strokeColor=#666666;" vertex="1" parent="1">
          <mxGeometry x="877" y="480" width="242" height="40" as="geometry" />
        </mxCell>
        <mxCell id="pMGXM-O-2ihCk8tD-NnK-42" value="&lt;p class=&quot;MsoNormal&quot; style=&quot;margin-bottom: 0.0001pt; line-height: normal; font-size: 18px;&quot;&gt;&lt;span style=&quot;font-size: 18px; line-height: 107%; font-family: calibri, sans-serif;&quot;&gt;Namghonhang&lt;/span&gt;&lt;br style=&quot;font-size: 18px;&quot;&gt;&lt;/p&gt;" style="whiteSpace=wrap;html=1;rounded=1;shadow=1;strokeWidth=1;fontSize=18;align=center;fillColor=#f5f5f5;strokeColor=#666666;" vertex="1" parent="1">
          <mxGeometry x="1200" y="480" width="242" height="40" as="geometry" />
        </mxCell>
        <mxCell id="pMGXM-O-2ihCk8tD-NnK-59" style="edgeStyle=orthogonalEdgeStyle;rounded=0;orthogonalLoop=1;jettySize=auto;html=1;exitX=0.5;exitY=1;exitDx=0;exitDy=0;entryX=0.5;entryY=0;entryDx=0;entryDy=0;fontSize=18;" edge="1" parent="1" source="pMGXM-O-2ihCk8tD-NnK-44" target="pMGXM-O-2ihCk8tD-NnK-53">
          <mxGeometry relative="1" as="geometry" />
        </mxCell>
        <mxCell id="pMGXM-O-2ihCk8tD-NnK-44" value="&lt;p class=&quot;MsoNormal&quot; style=&quot;margin-bottom: 0.0001pt; line-height: normal; font-size: 18px;&quot;&gt;&lt;span style=&quot;font-size: 18px; line-height: 107%; font-family: calibri, sans-serif;&quot;&gt;Manguhang&lt;/span&gt;&lt;br style=&quot;font-size: 18px;&quot;&gt;&lt;/p&gt;" style="whiteSpace=wrap;html=1;rounded=1;shadow=1;strokeWidth=1;fontSize=18;align=center;fillColor=#f5f5f5;strokeColor=#666666;" vertex="1" parent="1">
          <mxGeometry x="1520" y="480" width="242" height="40" as="geometry" />
        </mxCell>
        <mxCell id="pMGXM-O-2ihCk8tD-NnK-45" value="&lt;p class=&quot;MsoNormal&quot; style=&quot;margin-bottom: 0.0001pt; line-height: normal; font-size: 18px;&quot;&gt;&lt;span style=&quot;font-size: 18px; line-height: 107%; font-family: calibri, sans-serif;&quot;&gt;Yabokhang&lt;/span&gt;&lt;br style=&quot;font-size: 18px;&quot;&gt;&lt;/p&gt;" style="whiteSpace=wrap;html=1;rounded=1;shadow=1;strokeWidth=1;fontSize=18;align=center;fillColor=#f5f5f5;strokeColor=#666666;" vertex="1" parent="1">
          <mxGeometry x="1840" y="480" width="242" height="40" as="geometry" />
        </mxCell>
        <mxCell id="pMGXM-O-2ihCk8tD-NnK-60" style="edgeStyle=orthogonalEdgeStyle;rounded=0;orthogonalLoop=1;jettySize=auto;html=1;exitX=0.5;exitY=1;exitDx=0;exitDy=0;entryX=0.5;entryY=0;entryDx=0;entryDy=0;fontSize=18;" edge="1" parent="1" source="pMGXM-O-2ihCk8tD-NnK-53" target="pMGXM-O-2ihCk8tD-NnK-54">
          <mxGeometry relative="1" as="geometry" />
        </mxCell>
        <mxCell id="pMGXM-O-2ihCk8tD-NnK-53" value="&lt;p class=&quot;MsoNormal&quot; style=&quot;margin-bottom: 0.0001pt; line-height: normal; font-size: 18px;&quot;&gt;&lt;span style=&quot;font-size: 18px; line-height: 107%; font-family: calibri, sans-serif;&quot;&gt;Mayokhang&lt;/span&gt;&lt;br style=&quot;font-size: 18px;&quot;&gt;&lt;/p&gt;" style="whiteSpace=wrap;html=1;rounded=1;shadow=1;strokeWidth=1;fontSize=18;align=center;fillColor=#f5f5f5;strokeColor=#666666;" vertex="1" parent="1">
          <mxGeometry x="1520" y="560" width="242" height="40" as="geometry" />
        </mxCell>
        <mxCell id="pMGXM-O-2ihCk8tD-NnK-61" style="edgeStyle=orthogonalEdgeStyle;rounded=0;orthogonalLoop=1;jettySize=auto;html=1;exitX=0.5;exitY=1;exitDx=0;exitDy=0;entryX=0.5;entryY=0;entryDx=0;entryDy=0;fontSize=18;" edge="1" parent="1" source="pMGXM-O-2ihCk8tD-NnK-54" target="pMGXM-O-2ihCk8tD-NnK-55">
          <mxGeometry relative="1" as="geometry" />
        </mxCell>
        <mxCell id="pMGXM-O-2ihCk8tD-NnK-54" value="&lt;p class=&quot;MsoNormal&quot; style=&quot;margin-bottom: 0.0001pt; line-height: normal; font-size: 18px;&quot;&gt;&lt;span style=&quot;font-size: 18px; line-height: 107%; font-family: calibri, sans-serif;&quot;&gt;Aaphuhang&lt;/span&gt;&lt;br style=&quot;font-size: 18px;&quot;&gt;&lt;/p&gt;" style="whiteSpace=wrap;html=1;rounded=1;shadow=1;strokeWidth=1;fontSize=18;align=center;fillColor=#f5f5f5;strokeColor=#666666;" vertex="1" parent="1">
          <mxGeometry x="1520" y="640" width="242" height="40" as="geometry" />
        </mxCell>
        <mxCell id="pMGXM-O-2ihCk8tD-NnK-62" style="edgeStyle=orthogonalEdgeStyle;rounded=0;orthogonalLoop=1;jettySize=auto;html=1;exitX=0.5;exitY=1;exitDx=0;exitDy=0;entryX=0.5;entryY=0;entryDx=0;entryDy=0;fontSize=18;" edge="1" parent="1" source="pMGXM-O-2ihCk8tD-NnK-55" target="pMGXM-O-2ihCk8tD-NnK-56">
          <mxGeometry relative="1" as="geometry" />
        </mxCell>
        <mxCell id="pMGXM-O-2ihCk8tD-NnK-55" value="&lt;p class=&quot;MsoNormal&quot; style=&quot;margin-bottom: 0.0001pt; line-height: normal; font-size: 18px;&quot;&gt;&lt;span style=&quot;font-size: 18px; line-height: 107%; font-family: calibri, sans-serif;&quot;&gt;Dhankarna Rai&lt;/span&gt;&lt;br style=&quot;font-size: 18px;&quot;&gt;&lt;/p&gt;" style="whiteSpace=wrap;html=1;rounded=1;shadow=1;strokeWidth=1;fontSize=18;align=center;fillColor=#f5f5f5;strokeColor=#666666;" vertex="1" parent="1">
          <mxGeometry x="1520" y="720" width="242" height="40" as="geometry" />
        </mxCell>
        <mxCell id="pMGXM-O-2ihCk8tD-NnK-63" style="edgeStyle=orthogonalEdgeStyle;rounded=0;orthogonalLoop=1;jettySize=auto;html=1;exitX=0.5;exitY=1;exitDx=0;exitDy=0;entryX=0.5;entryY=0;entryDx=0;entryDy=0;fontSize=18;" edge="1" parent="1" source="pMGXM-O-2ihCk8tD-NnK-56" target="pMGXM-O-2ihCk8tD-NnK-57">
          <mxGeometry relative="1" as="geometry" />
        </mxCell>
        <mxCell id="pMGXM-O-2ihCk8tD-NnK-56" value="&lt;p class=&quot;MsoNormal&quot; style=&quot;margin-bottom: 0.0001pt; line-height: normal; font-size: 18px;&quot;&gt;&lt;span style=&quot;font-size: 18px; line-height: 107%; font-family: calibri, sans-serif;&quot;&gt;Aadrai&lt;/span&gt;&lt;br style=&quot;font-size: 18px;&quot;&gt;&lt;/p&gt;" style="whiteSpace=wrap;html=1;rounded=1;shadow=1;strokeWidth=1;fontSize=18;align=center;fillColor=#f5f5f5;strokeColor=#666666;" vertex="1" parent="1">
          <mxGeometry x="1520" y="800" width="242" height="40" as="geometry" />
        </mxCell>
        <mxCell id="pMGXM-O-2ihCk8tD-NnK-67" style="edgeStyle=orthogonalEdgeStyle;rounded=0;orthogonalLoop=1;jettySize=auto;html=1;exitX=0.5;exitY=1;exitDx=0;exitDy=0;entryX=0.5;entryY=0;entryDx=0;entryDy=0;fontSize=18;" edge="1" parent="1" source="pMGXM-O-2ihCk8tD-NnK-57" target="pMGXM-O-2ihCk8tD-NnK-64">
          <mxGeometry relative="1" as="geometry" />
        </mxCell>
        <mxCell id="pMGXM-O-2ihCk8tD-NnK-57" value="&lt;p class=&quot;MsoNormal&quot; style=&quot;margin-bottom: 0.0001pt; line-height: normal; font-size: 18px;&quot;&gt;&lt;span style=&quot;font-size: 18px; line-height: 107%; font-family: calibri, sans-serif;&quot;&gt;Sarup Rai&lt;/span&gt;&lt;br style=&quot;font-size: 18px;&quot;&gt;&lt;/p&gt;" style="whiteSpace=wrap;html=1;rounded=1;shadow=1;strokeWidth=1;fontSize=18;align=center;fillColor=#f5f5f5;strokeColor=#666666;" vertex="1" parent="1">
          <mxGeometry x="1520" y="880" width="242" height="40" as="geometry" />
        </mxCell>
        <mxCell id="pMGXM-O-2ihCk8tD-NnK-70" style="edgeStyle=orthogonalEdgeStyle;rounded=0;orthogonalLoop=1;jettySize=auto;html=1;exitX=0.5;exitY=1;exitDx=0;exitDy=0;fontSize=18;" edge="1" parent="1" source="pMGXM-O-2ihCk8tD-NnK-64" target="pMGXM-O-2ihCk8tD-NnK-68">
          <mxGeometry relative="1" as="geometry" />
        </mxCell>
        <mxCell id="pMGXM-O-2ihCk8tD-NnK-160" style="edgeStyle=orthogonalEdgeStyle;rounded=0;orthogonalLoop=1;jettySize=auto;html=1;exitX=0.5;exitY=1;exitDx=0;exitDy=0;entryX=0.5;entryY=0;entryDx=0;entryDy=0;fontSize=18;" edge="1" parent="1" source="pMGXM-O-2ihCk8tD-NnK-64" target="pMGXM-O-2ihCk8tD-NnK-69">
          <mxGeometry relative="1" as="geometry" />
        </mxCell>
        <mxCell id="pMGXM-O-2ihCk8tD-NnK-163" style="edgeStyle=orthogonalEdgeStyle;rounded=0;orthogonalLoop=1;jettySize=auto;html=1;exitX=0.5;exitY=1;exitDx=0;exitDy=0;fontSize=18;" edge="1" parent="1" source="pMGXM-O-2ihCk8tD-NnK-64" target="pMGXM-O-2ihCk8tD-NnK-73">
          <mxGeometry relative="1" as="geometry" />
        </mxCell>
        <mxCell id="pMGXM-O-2ihCk8tD-NnK-64" value="&lt;p class=&quot;MsoNormal&quot; style=&quot;margin-bottom: 0.0001pt; line-height: normal; font-size: 18px;&quot;&gt;&lt;span style=&quot;font-size: 18px; line-height: 107%; font-family: calibri, sans-serif;&quot;&gt;Billakarna Rai&lt;/span&gt;&lt;br style=&quot;font-size: 18px;&quot;&gt;&lt;/p&gt;" style="whiteSpace=wrap;html=1;rounded=1;shadow=1;strokeWidth=1;fontSize=18;align=center;fillColor=#f5f5f5;strokeColor=#666666;" vertex="1" parent="1">
          <mxGeometry x="1520" y="960" width="242" height="40" as="geometry" />
        </mxCell>
        <mxCell id="pMGXM-O-2ihCk8tD-NnK-75" style="edgeStyle=orthogonalEdgeStyle;rounded=0;orthogonalLoop=1;jettySize=auto;html=1;exitX=0.5;exitY=1;exitDx=0;exitDy=0;fontSize=18;" edge="1" parent="1" source="pMGXM-O-2ihCk8tD-NnK-68" target="pMGXM-O-2ihCk8tD-NnK-72">
          <mxGeometry relative="1" as="geometry" />
        </mxCell>
        <mxCell id="pMGXM-O-2ihCk8tD-NnK-68" value="&lt;p class=&quot;MsoNormal&quot; style=&quot;margin-bottom: 0.0001pt; line-height: normal; font-size: 18px;&quot;&gt;&lt;span style=&quot;font-size: 18px; line-height: 107%; font-family: calibri, sans-serif;&quot;&gt;Rukarna Rai&amp;nbsp;&lt;/span&gt;&lt;br style=&quot;font-size: 18px;&quot;&gt;&lt;/p&gt;" style="whiteSpace=wrap;html=1;rounded=1;shadow=1;strokeWidth=1;fontSize=18;align=center;fillColor=#f5f5f5;strokeColor=#666666;" vertex="1" parent="1">
          <mxGeometry x="-491" y="1180" width="242" height="40" as="geometry" />
        </mxCell>
        <mxCell id="pMGXM-O-2ihCk8tD-NnK-69" value="&lt;p class=&quot;MsoNormal&quot; style=&quot;margin-bottom: 0.0001pt; line-height: normal; font-size: 18px;&quot;&gt;&lt;span style=&quot;font-size: 18px; line-height: 107%; font-family: calibri, sans-serif;&quot;&gt;Kulbol Rai&lt;/span&gt;&lt;br style=&quot;font-size: 18px;&quot;&gt;&lt;/p&gt;" style="whiteSpace=wrap;html=1;rounded=1;shadow=1;strokeWidth=1;fontSize=18;align=center;fillColor=#f5f5f5;strokeColor=#666666;" vertex="1" parent="1">
          <mxGeometry x="2060" y="1180" width="242" height="40" as="geometry" />
        </mxCell>
        <mxCell id="pMGXM-O-2ihCk8tD-NnK-80" style="edgeStyle=orthogonalEdgeStyle;rounded=0;orthogonalLoop=1;jettySize=auto;html=1;exitX=0.5;exitY=1;exitDx=0;exitDy=0;entryX=0.5;entryY=0;entryDx=0;entryDy=0;fontSize=18;" edge="1" parent="1" source="pMGXM-O-2ihCk8tD-NnK-72" target="pMGXM-O-2ihCk8tD-NnK-77">
          <mxGeometry relative="1" as="geometry" />
        </mxCell>
        <mxCell id="pMGXM-O-2ihCk8tD-NnK-72" value="&lt;p class=&quot;MsoNormal&quot; style=&quot;margin-bottom: 0.0001pt; line-height: normal; font-size: 18px;&quot;&gt;&lt;span style=&quot;font-size: 18px; line-height: 107%; font-family: calibri, sans-serif;&quot;&gt;Dal Bdr. Rai&lt;/span&gt;&lt;br style=&quot;font-size: 18px;&quot;&gt;&lt;/p&gt;" style="whiteSpace=wrap;html=1;rounded=1;shadow=1;strokeWidth=1;fontSize=18;align=center;fillColor=#f5f5f5;strokeColor=#666666;" vertex="1" parent="1">
          <mxGeometry x="-733" y="1260" width="242" height="40" as="geometry" />
        </mxCell>
        <mxCell id="pMGXM-O-2ihCk8tD-NnK-99" style="edgeStyle=orthogonalEdgeStyle;rounded=0;orthogonalLoop=1;jettySize=auto;html=1;exitX=0.5;exitY=1;exitDx=0;exitDy=0;entryX=0.5;entryY=0;entryDx=0;entryDy=0;fontSize=18;" edge="1" parent="1" source="pMGXM-O-2ihCk8tD-NnK-73" target="pMGXM-O-2ihCk8tD-NnK-96">
          <mxGeometry relative="1" as="geometry" />
        </mxCell>
        <mxCell id="pMGXM-O-2ihCk8tD-NnK-73" value="&lt;p class=&quot;MsoNormal&quot; style=&quot;margin-bottom: 0.0001pt; line-height: normal; font-size: 18px;&quot;&gt;&lt;span style=&quot;font-size: 18px; line-height: 107%; font-family: calibri, sans-serif;&quot;&gt;Bakhat Singh&lt;/span&gt;&lt;br style=&quot;font-size: 18px;&quot;&gt;&lt;/p&gt;" style="whiteSpace=wrap;html=1;rounded=1;shadow=1;strokeWidth=1;fontSize=18;align=center;fillColor=#f5f5f5;strokeColor=#666666;" vertex="1" parent="1">
          <mxGeometry x="370" y="1180" width="242" height="40" as="geometry" />
        </mxCell>
        <mxCell id="pMGXM-O-2ihCk8tD-NnK-88" style="edgeStyle=orthogonalEdgeStyle;rounded=0;orthogonalLoop=1;jettySize=auto;html=1;exitX=0.5;exitY=1;exitDx=0;exitDy=0;entryX=0.5;entryY=0;entryDx=0;entryDy=0;fontSize=18;" edge="1" parent="1" source="pMGXM-O-2ihCk8tD-NnK-77" target="pMGXM-O-2ihCk8tD-NnK-78">
          <mxGeometry relative="1" as="geometry" />
        </mxCell>
        <mxCell id="pMGXM-O-2ihCk8tD-NnK-77" value="&lt;p class=&quot;MsoNormal&quot; style=&quot;margin-bottom: 0.0001pt; line-height: normal; font-size: 18px;&quot;&gt;&lt;span style=&quot;font-size: 18px; line-height: 107%; font-family: calibri, sans-serif;&quot;&gt;Hitaman&lt;/span&gt;&lt;br style=&quot;font-size: 18px;&quot;&gt;&lt;/p&gt;" style="whiteSpace=wrap;html=1;rounded=1;shadow=1;strokeWidth=1;fontSize=18;align=center;fillColor=#f5f5f5;strokeColor=#666666;" vertex="1" parent="1">
          <mxGeometry x="-733" y="1339" width="242" height="40" as="geometry" />
        </mxCell>
        <mxCell id="pMGXM-O-2ihCk8tD-NnK-89" style="edgeStyle=orthogonalEdgeStyle;rounded=0;orthogonalLoop=1;jettySize=auto;html=1;exitX=0.5;exitY=1;exitDx=0;exitDy=0;entryX=0.5;entryY=0;entryDx=0;entryDy=0;fontSize=18;" edge="1" parent="1" source="pMGXM-O-2ihCk8tD-NnK-78" target="pMGXM-O-2ihCk8tD-NnK-79">
          <mxGeometry relative="1" as="geometry" />
        </mxCell>
        <mxCell id="pMGXM-O-2ihCk8tD-NnK-78" value="&lt;p class=&quot;MsoNormal&quot; style=&quot;margin-bottom: 0.0001pt; line-height: normal; font-size: 18px;&quot;&gt;&lt;span style=&quot;font-size: 18px; line-height: 107%; font-family: calibri, sans-serif;&quot;&gt;Manpati&amp;nbsp;&lt;/span&gt;&lt;br style=&quot;font-size: 18px;&quot;&gt;&lt;/p&gt;" style="whiteSpace=wrap;html=1;rounded=1;shadow=1;strokeWidth=1;fontSize=18;align=center;fillColor=#f5f5f5;strokeColor=#666666;" vertex="1" parent="1">
          <mxGeometry x="-733" y="1420" width="242" height="40" as="geometry" />
        </mxCell>
        <mxCell id="pMGXM-O-2ihCk8tD-NnK-94" style="edgeStyle=orthogonalEdgeStyle;rounded=0;orthogonalLoop=1;jettySize=auto;html=1;exitX=0.5;exitY=1;exitDx=0;exitDy=0;entryX=0.5;entryY=0;entryDx=0;entryDy=0;fontSize=18;" edge="1" parent="1" source="pMGXM-O-2ihCk8tD-NnK-79" target="pMGXM-O-2ihCk8tD-NnK-91">
          <mxGeometry relative="1" as="geometry" />
        </mxCell>
        <mxCell id="pMGXM-O-2ihCk8tD-NnK-95" style="edgeStyle=orthogonalEdgeStyle;rounded=0;orthogonalLoop=1;jettySize=auto;html=1;exitX=0.5;exitY=1;exitDx=0;exitDy=0;fontSize=18;" edge="1" parent="1" source="pMGXM-O-2ihCk8tD-NnK-79" target="pMGXM-O-2ihCk8tD-NnK-92">
          <mxGeometry relative="1" as="geometry" />
        </mxCell>
        <mxCell id="pMGXM-O-2ihCk8tD-NnK-161" style="edgeStyle=orthogonalEdgeStyle;rounded=0;orthogonalLoop=1;jettySize=auto;html=1;exitX=0.5;exitY=1;exitDx=0;exitDy=0;fontSize=18;" edge="1" parent="1" source="pMGXM-O-2ihCk8tD-NnK-79" target="pMGXM-O-2ihCk8tD-NnK-90">
          <mxGeometry relative="1" as="geometry" />
        </mxCell>
        <mxCell id="pMGXM-O-2ihCk8tD-NnK-79" value="&lt;p class=&quot;MsoNormal&quot; style=&quot;margin-bottom: 0.0001pt; line-height: normal; font-size: 18px;&quot;&gt;&lt;span style=&quot;font-size: 18px; line-height: 107%; font-family: calibri, sans-serif;&quot;&gt;Man Bdr.&lt;/span&gt;&lt;br style=&quot;font-size: 18px;&quot;&gt;&lt;/p&gt;" style="whiteSpace=wrap;html=1;rounded=1;shadow=1;strokeWidth=1;fontSize=18;align=center;fillColor=#f5f5f5;strokeColor=#666666;" vertex="1" parent="1">
          <mxGeometry x="-733" y="1500" width="242" height="40" as="geometry" />
        </mxCell>
        <mxCell id="pMGXM-O-2ihCk8tD-NnK-90" value="&lt;p class=&quot;MsoNormal&quot; style=&quot;margin-bottom: 0.0001pt; line-height: normal; font-size: 18px;&quot;&gt;&lt;span style=&quot;font-size: 18px; line-height: 107%; font-family: calibri, sans-serif;&quot;&gt;Chhature&amp;nbsp; (infertile)&lt;/span&gt;&lt;br style=&quot;font-size: 18px;&quot;&gt;&lt;/p&gt;" style="whiteSpace=wrap;html=1;rounded=1;shadow=1;strokeWidth=1;fontSize=18;align=center;fillColor=#f5f5f5;strokeColor=#666666;" vertex="1" parent="1">
          <mxGeometry x="-1040" y="1580" width="242" height="40" as="geometry" />
        </mxCell>
        <mxCell id="pMGXM-O-2ihCk8tD-NnK-91" value="&lt;p class=&quot;MsoNormal&quot; style=&quot;margin-bottom: 0.0001pt; line-height: normal; font-size: 18px;&quot;&gt;&lt;span style=&quot;font-size: 18px; line-height: 107%; font-family: calibri, sans-serif;&quot;&gt;Mabine&amp;nbsp; (infertile)&lt;/span&gt;&lt;br style=&quot;font-size: 18px;&quot;&gt;&lt;/p&gt;" style="whiteSpace=wrap;html=1;rounded=1;shadow=1;strokeWidth=1;fontSize=18;align=center;fillColor=#f5f5f5;strokeColor=#666666;" vertex="1" parent="1">
          <mxGeometry x="-733" y="1580" width="242" height="40" as="geometry" />
        </mxCell>
        <mxCell id="pMGXM-O-2ihCk8tD-NnK-92" value="&lt;p class=&quot;MsoNormal&quot; style=&quot;margin-bottom: 0.0001pt; line-height: normal; font-size: 18px;&quot;&gt;&lt;span style=&quot;font-size: 18px; line-height: 107%; font-family: calibri, sans-serif;&quot;&gt;Khisbire (infertile)&lt;/span&gt;&lt;br style=&quot;font-size: 18px;&quot;&gt;&lt;/p&gt;" style="whiteSpace=wrap;html=1;rounded=1;shadow=1;strokeWidth=1;fontSize=18;align=center;fillColor=#f5f5f5;strokeColor=#666666;" vertex="1" parent="1">
          <mxGeometry x="-411" y="1580" width="242" height="40" as="geometry" />
        </mxCell>
        <mxCell id="pMGXM-O-2ihCk8tD-NnK-100" style="edgeStyle=orthogonalEdgeStyle;rounded=0;orthogonalLoop=1;jettySize=auto;html=1;exitX=0.5;exitY=1;exitDx=0;exitDy=0;entryX=0.5;entryY=0;entryDx=0;entryDy=0;fontSize=18;" edge="1" parent="1" source="pMGXM-O-2ihCk8tD-NnK-96" target="pMGXM-O-2ihCk8tD-NnK-97">
          <mxGeometry relative="1" as="geometry" />
        </mxCell>
        <mxCell id="pMGXM-O-2ihCk8tD-NnK-96" value="&lt;p class=&quot;MsoNormal&quot; style=&quot;margin-bottom: 0.0001pt; line-height: normal; font-size: 18px;&quot;&gt;&lt;span style=&quot;font-size: 18px; line-height: 107%; font-family: calibri, sans-serif;&quot;&gt;Jitman&lt;/span&gt;&lt;br style=&quot;font-size: 18px;&quot;&gt;&lt;/p&gt;" style="whiteSpace=wrap;html=1;rounded=1;shadow=1;strokeWidth=1;fontSize=18;align=center;fillColor=#f5f5f5;strokeColor=#666666;" vertex="1" parent="1">
          <mxGeometry x="370" y="1269" width="242" height="40" as="geometry" />
        </mxCell>
        <mxCell id="pMGXM-O-2ihCk8tD-NnK-101" style="edgeStyle=orthogonalEdgeStyle;rounded=0;orthogonalLoop=1;jettySize=auto;html=1;exitX=0.5;exitY=1;exitDx=0;exitDy=0;fontSize=18;" edge="1" parent="1" source="pMGXM-O-2ihCk8tD-NnK-97" target="pMGXM-O-2ihCk8tD-NnK-98">
          <mxGeometry relative="1" as="geometry" />
        </mxCell>
        <mxCell id="pMGXM-O-2ihCk8tD-NnK-103" style="edgeStyle=orthogonalEdgeStyle;rounded=0;orthogonalLoop=1;jettySize=auto;html=1;exitX=0.5;exitY=1;exitDx=0;exitDy=0;fontSize=18;" edge="1" parent="1" source="pMGXM-O-2ihCk8tD-NnK-97" target="pMGXM-O-2ihCk8tD-NnK-102">
          <mxGeometry relative="1" as="geometry" />
        </mxCell>
        <mxCell id="pMGXM-O-2ihCk8tD-NnK-97" value="&lt;p class=&quot;MsoNormal&quot; style=&quot;margin-bottom: 0.0001pt; line-height: normal; font-size: 18px;&quot;&gt;&lt;span style=&quot;font-size: 18px; line-height: 107%; font-family: calibri, sans-serif;&quot;&gt;Bakhat Jung&lt;/span&gt;&lt;br style=&quot;font-size: 18px;&quot;&gt;&lt;/p&gt;" style="whiteSpace=wrap;html=1;rounded=1;shadow=1;strokeWidth=1;fontSize=18;align=center;fillColor=#f5f5f5;strokeColor=#666666;" vertex="1" parent="1">
          <mxGeometry x="370" y="1350" width="242" height="40" as="geometry" />
        </mxCell>
        <mxCell id="pMGXM-O-2ihCk8tD-NnK-107" style="edgeStyle=orthogonalEdgeStyle;rounded=0;orthogonalLoop=1;jettySize=auto;html=1;exitX=0.5;exitY=1;exitDx=0;exitDy=0;fontSize=18;" edge="1" parent="1" source="pMGXM-O-2ihCk8tD-NnK-98" target="pMGXM-O-2ihCk8tD-NnK-104">
          <mxGeometry relative="1" as="geometry">
            <Array as="points">
              <mxPoint x="291" y="1510" />
              <mxPoint x="3" y="1510" />
            </Array>
          </mxGeometry>
        </mxCell>
        <mxCell id="pMGXM-O-2ihCk8tD-NnK-108" style="edgeStyle=orthogonalEdgeStyle;rounded=0;orthogonalLoop=1;jettySize=auto;html=1;exitX=0.5;exitY=1;exitDx=0;exitDy=0;fontSize=18;" edge="1" parent="1" source="pMGXM-O-2ihCk8tD-NnK-98" target="pMGXM-O-2ihCk8tD-NnK-105">
          <mxGeometry relative="1" as="geometry" />
        </mxCell>
        <mxCell id="pMGXM-O-2ihCk8tD-NnK-116" style="edgeStyle=orthogonalEdgeStyle;rounded=0;orthogonalLoop=1;jettySize=auto;html=1;exitX=0.5;exitY=1;exitDx=0;exitDy=0;entryX=0.5;entryY=0;entryDx=0;entryDy=0;fontSize=18;" edge="1" parent="1" source="pMGXM-O-2ihCk8tD-NnK-98" target="pMGXM-O-2ihCk8tD-NnK-106">
          <mxGeometry relative="1" as="geometry">
            <Array as="points">
              <mxPoint x="291" y="1510" />
              <mxPoint x="690" y="1510" />
            </Array>
          </mxGeometry>
        </mxCell>
        <mxCell id="pMGXM-O-2ihCk8tD-NnK-98" value="&lt;p class=&quot;MsoNormal&quot; style=&quot;margin-bottom: 0.0001pt; line-height: normal; font-size: 18px;&quot;&gt;&lt;span style=&quot;font-size: 18px; line-height: 107%; font-family: calibri, sans-serif;&quot;&gt;Jagadip&amp;nbsp; &amp;nbsp;&lt;/span&gt;&lt;br style=&quot;font-size: 18px;&quot;&gt;&lt;/p&gt;" style="whiteSpace=wrap;html=1;rounded=1;shadow=1;strokeWidth=1;fontSize=18;align=center;fillColor=#f5f5f5;strokeColor=#666666;" vertex="1" parent="1">
          <mxGeometry x="170" y="1430" width="242" height="40" as="geometry" />
        </mxCell>
        <mxCell id="pMGXM-O-2ihCk8tD-NnK-121" style="edgeStyle=orthogonalEdgeStyle;rounded=0;orthogonalLoop=1;jettySize=auto;html=1;exitX=0.5;exitY=1;exitDx=0;exitDy=0;fontSize=18;" edge="1" parent="1" source="pMGXM-O-2ihCk8tD-NnK-102" target="pMGXM-O-2ihCk8tD-NnK-117">
          <mxGeometry relative="1" as="geometry" />
        </mxCell>
        <mxCell id="pMGXM-O-2ihCk8tD-NnK-122" style="edgeStyle=orthogonalEdgeStyle;rounded=0;orthogonalLoop=1;jettySize=auto;html=1;exitX=0.5;exitY=1;exitDx=0;exitDy=0;entryX=0.5;entryY=0;entryDx=0;entryDy=0;fontSize=18;" edge="1" parent="1" source="pMGXM-O-2ihCk8tD-NnK-102" target="pMGXM-O-2ihCk8tD-NnK-118">
          <mxGeometry relative="1" as="geometry" />
        </mxCell>
        <mxCell id="pMGXM-O-2ihCk8tD-NnK-137" style="edgeStyle=orthogonalEdgeStyle;rounded=0;orthogonalLoop=1;jettySize=auto;html=1;exitX=0.5;exitY=1;exitDx=0;exitDy=0;fontSize=18;" edge="1" parent="1" source="pMGXM-O-2ihCk8tD-NnK-102" target="pMGXM-O-2ihCk8tD-NnK-119">
          <mxGeometry relative="1" as="geometry" />
        </mxCell>
        <mxCell id="pMGXM-O-2ihCk8tD-NnK-102" value="&lt;p class=&quot;MsoNormal&quot; style=&quot;margin-bottom: 0.0001pt; line-height: normal; font-size: 18px;&quot;&gt;&lt;span style=&quot;font-size: 18px; line-height: 107%; font-family: calibri, sans-serif;&quot;&gt;Dilliman&lt;/span&gt;&lt;br style=&quot;font-size: 18px;&quot;&gt;&lt;/p&gt;" style="whiteSpace=wrap;html=1;rounded=1;shadow=1;strokeWidth=1;fontSize=18;align=center;fillColor=#f5f5f5;strokeColor=#666666;" vertex="1" parent="1">
          <mxGeometry x="1680" y="1430" width="242" height="40" as="geometry" />
        </mxCell>
        <mxCell id="pMGXM-O-2ihCk8tD-NnK-104" value="&lt;p class=&quot;MsoNormal&quot; style=&quot;margin-bottom: 0.0001pt; line-height: normal; font-size: 18px;&quot;&gt;&lt;span style=&quot;font-size: 18px; line-height: 107%; font-family: calibri, sans-serif;&quot;&gt;Bajra (infertile)&amp;nbsp;&lt;/span&gt;&lt;br style=&quot;font-size: 18px;&quot;&gt;&lt;/p&gt;" style="whiteSpace=wrap;html=1;rounded=1;shadow=1;strokeWidth=1;fontSize=18;align=center;fillColor=#f5f5f5;strokeColor=#666666;" vertex="1" parent="1">
          <mxGeometry x="-118" y="1540" width="242" height="40" as="geometry" />
        </mxCell>
        <mxCell id="pMGXM-O-2ihCk8tD-NnK-111" style="edgeStyle=orthogonalEdgeStyle;rounded=0;orthogonalLoop=1;jettySize=auto;html=1;exitX=0.5;exitY=1;exitDx=0;exitDy=0;fontSize=18;" edge="1" parent="1" source="pMGXM-O-2ihCk8tD-NnK-105" target="pMGXM-O-2ihCk8tD-NnK-110">
          <mxGeometry relative="1" as="geometry" />
        </mxCell>
        <mxCell id="pMGXM-O-2ihCk8tD-NnK-105" value="&lt;p class=&quot;MsoNormal&quot; style=&quot;margin-bottom: 0.0001pt; line-height: normal; font-size: 18px;&quot;&gt;&lt;span style=&quot;font-size: 18px; line-height: 107%; font-family: calibri, sans-serif;&quot;&gt;Ghondrok&lt;/span&gt;&lt;br style=&quot;font-size: 18px;&quot;&gt;&lt;/p&gt;" style="whiteSpace=wrap;html=1;rounded=1;shadow=1;strokeWidth=1;fontSize=18;align=center;fillColor=#f5f5f5;strokeColor=#666666;" vertex="1" parent="1">
          <mxGeometry x="170" y="1540" width="242" height="40" as="geometry" />
        </mxCell>
        <mxCell id="pMGXM-O-2ihCk8tD-NnK-113" style="edgeStyle=orthogonalEdgeStyle;rounded=0;orthogonalLoop=1;jettySize=auto;html=1;exitX=0.5;exitY=1;exitDx=0;exitDy=0;fontSize=18;" edge="1" parent="1" source="pMGXM-O-2ihCk8tD-NnK-106" target="pMGXM-O-2ihCk8tD-NnK-112">
          <mxGeometry relative="1" as="geometry" />
        </mxCell>
        <mxCell id="pMGXM-O-2ihCk8tD-NnK-106" value="&lt;p class=&quot;MsoNormal&quot; style=&quot;margin-bottom: 0.0001pt; line-height: normal; font-size: 18px;&quot;&gt;&lt;span style=&quot;font-size: 18px; line-height: 107%; font-family: calibri, sans-serif;&quot;&gt;Udaya Bdr.&lt;/span&gt;&lt;br style=&quot;font-size: 18px;&quot;&gt;&lt;/p&gt;" style="whiteSpace=wrap;html=1;rounded=1;shadow=1;strokeWidth=1;fontSize=18;align=center;fillColor=#f5f5f5;strokeColor=#666666;" vertex="1" parent="1">
          <mxGeometry x="569" y="1570" width="242" height="40" as="geometry" />
        </mxCell>
        <mxCell id="pMGXM-O-2ihCk8tD-NnK-110" value="&lt;p class=&quot;MsoNormal&quot; style=&quot;margin-bottom: 0.0001pt; line-height: normal; font-size: 18px;&quot;&gt;&lt;span style=&quot;font-size: 18px; line-height: 107%; font-family: calibri, sans-serif;&quot;&gt;Tek Bdr.&lt;/span&gt;&lt;br style=&quot;font-size: 18px;&quot;&gt;&lt;/p&gt;" style="whiteSpace=wrap;html=1;rounded=1;shadow=1;strokeWidth=1;fontSize=18;align=center;fillColor=#f5f5f5;strokeColor=#666666;" vertex="1" parent="1">
          <mxGeometry x="170" y="1630" width="242" height="40" as="geometry" />
        </mxCell>
        <mxCell id="pMGXM-O-2ihCk8tD-NnK-112" value="&lt;p class=&quot;MsoNormal&quot; style=&quot;margin-bottom: 0.0001pt; line-height: normal; font-size: 18px;&quot;&gt;&lt;span style=&quot;font-size: 18px; line-height: 107%; font-family: calibri, sans-serif;&quot;&gt;Surya Bdr.&lt;/span&gt;&lt;br style=&quot;font-size: 18px;&quot;&gt;&lt;/p&gt;" style="whiteSpace=wrap;html=1;rounded=1;shadow=1;strokeWidth=1;fontSize=18;align=center;fillColor=#f5f5f5;strokeColor=#666666;" vertex="1" parent="1">
          <mxGeometry x="569" y="1660" width="242" height="40" as="geometry" />
        </mxCell>
        <mxCell id="pMGXM-O-2ihCk8tD-NnK-114" value="&lt;p class=&quot;MsoNormal&quot; style=&quot;margin-bottom: 0.0001pt; line-height: normal; font-size: 18px;&quot;&gt;&lt;span style=&quot;font-size: 18px; line-height: 107%; font-family: calibri, sans-serif;&quot;&gt;Mukti&lt;/span&gt;&lt;br style=&quot;font-size: 18px;&quot;&gt;&lt;/p&gt;" style="whiteSpace=wrap;html=1;rounded=1;shadow=1;strokeWidth=1;fontSize=18;align=center;fillColor=#f5f5f5;strokeColor=#666666;" vertex="1" parent="1">
          <mxGeometry x="409" y="1740" width="242" height="40" as="geometry" />
        </mxCell>
        <mxCell id="pMGXM-O-2ihCk8tD-NnK-115" value="&lt;p class=&quot;MsoNormal&quot; style=&quot;margin-bottom: 0.0001pt; line-height: normal; font-size: 18px;&quot;&gt;&lt;span style=&quot;font-size: 18px; line-height: 107%; font-family: calibri, sans-serif;&quot;&gt;Yukti&lt;/span&gt;&lt;br style=&quot;font-size: 18px;&quot;&gt;&lt;/p&gt;" style="whiteSpace=wrap;html=1;rounded=1;shadow=1;strokeWidth=1;fontSize=18;align=center;fillColor=#f5f5f5;strokeColor=#666666;" vertex="1" parent="1">
          <mxGeometry x="739" y="1740" width="242" height="40" as="geometry" />
        </mxCell>
        <mxCell id="pMGXM-O-2ihCk8tD-NnK-127" style="edgeStyle=orthogonalEdgeStyle;rounded=0;orthogonalLoop=1;jettySize=auto;html=1;exitX=0.5;exitY=1;exitDx=0;exitDy=0;entryX=0.5;entryY=0;entryDx=0;entryDy=0;fontSize=18;" edge="1" parent="1" source="pMGXM-O-2ihCk8tD-NnK-117" target="pMGXM-O-2ihCk8tD-NnK-124">
          <mxGeometry relative="1" as="geometry" />
        </mxCell>
        <mxCell id="pMGXM-O-2ihCk8tD-NnK-117" value="&lt;p class=&quot;MsoNormal&quot; style=&quot;margin-bottom: 0.0001pt; line-height: normal; font-size: 18px;&quot;&gt;&lt;span style=&quot;font-size: 18px; line-height: 107%; font-family: calibri, sans-serif;&quot;&gt;Agam Bdr..&lt;/span&gt;&lt;br style=&quot;font-size: 18px;&quot;&gt;&lt;/p&gt;" style="whiteSpace=wrap;html=1;rounded=1;shadow=1;strokeWidth=1;fontSize=18;align=center;fillColor=#f5f5f5;strokeColor=#666666;" vertex="1" parent="1">
          <mxGeometry x="1250" y="1540" width="242" height="40" as="geometry" />
        </mxCell>
        <mxCell id="pMGXM-O-2ihCk8tD-NnK-133" style="edgeStyle=orthogonalEdgeStyle;rounded=0;orthogonalLoop=1;jettySize=auto;html=1;exitX=0.5;exitY=1;exitDx=0;exitDy=0;fontSize=18;" edge="1" parent="1" source="pMGXM-O-2ihCk8tD-NnK-118" target="pMGXM-O-2ihCk8tD-NnK-130">
          <mxGeometry relative="1" as="geometry" />
        </mxCell>
        <mxCell id="pMGXM-O-2ihCk8tD-NnK-134" style="edgeStyle=orthogonalEdgeStyle;rounded=0;orthogonalLoop=1;jettySize=auto;html=1;exitX=0.5;exitY=1;exitDx=0;exitDy=0;fontSize=18;" edge="1" parent="1" source="pMGXM-O-2ihCk8tD-NnK-118" target="pMGXM-O-2ihCk8tD-NnK-131">
          <mxGeometry relative="1" as="geometry" />
        </mxCell>
        <mxCell id="pMGXM-O-2ihCk8tD-NnK-135" style="edgeStyle=orthogonalEdgeStyle;rounded=0;orthogonalLoop=1;jettySize=auto;html=1;exitX=0.5;exitY=1;exitDx=0;exitDy=0;fontSize=18;" edge="1" parent="1" source="pMGXM-O-2ihCk8tD-NnK-118" target="pMGXM-O-2ihCk8tD-NnK-132">
          <mxGeometry relative="1" as="geometry" />
        </mxCell>
        <mxCell id="pMGXM-O-2ihCk8tD-NnK-118" value="&lt;p class=&quot;MsoNormal&quot; style=&quot;margin-bottom: 0.0001pt; line-height: normal; font-size: 18px;&quot;&gt;&lt;span style=&quot;font-size: 18px; line-height: 107%; font-family: calibri, sans-serif;&quot;&gt;Dil Bdr.&lt;/span&gt;&lt;br style=&quot;font-size: 18px;&quot;&gt;&lt;/p&gt;" style="whiteSpace=wrap;html=1;rounded=1;shadow=1;strokeWidth=1;fontSize=18;align=center;fillColor=#f5f5f5;strokeColor=#666666;" vertex="1" parent="1">
          <mxGeometry x="1860" y="1540" width="242" height="40" as="geometry" />
        </mxCell>
        <mxCell id="pMGXM-O-2ihCk8tD-NnK-139" style="edgeStyle=orthogonalEdgeStyle;rounded=0;orthogonalLoop=1;jettySize=auto;html=1;exitX=0.5;exitY=1;exitDx=0;exitDy=0;fontSize=18;" edge="1" parent="1" source="pMGXM-O-2ihCk8tD-NnK-119" target="pMGXM-O-2ihCk8tD-NnK-138">
          <mxGeometry relative="1" as="geometry" />
        </mxCell>
        <mxCell id="pMGXM-O-2ihCk8tD-NnK-119" value="&lt;p class=&quot;MsoNormal&quot; style=&quot;margin-bottom: 0.0001pt; line-height: normal; font-size: 18px;&quot;&gt;&lt;span style=&quot;font-size: 18px; line-height: 107%; font-family: calibri, sans-serif;&quot;&gt;Bhim Bdr.&lt;/span&gt;&lt;br style=&quot;font-size: 18px;&quot;&gt;&lt;/p&gt;" style="whiteSpace=wrap;html=1;rounded=1;shadow=1;strokeWidth=1;fontSize=18;align=center;fillColor=#f5f5f5;strokeColor=#666666;" vertex="1" parent="1">
          <mxGeometry x="2440" y="1540" width="242" height="40" as="geometry" />
        </mxCell>
        <mxCell id="pMGXM-O-2ihCk8tD-NnK-128" style="edgeStyle=orthogonalEdgeStyle;rounded=0;orthogonalLoop=1;jettySize=auto;html=1;exitX=0.5;exitY=1;exitDx=0;exitDy=0;fontSize=18;" edge="1" parent="1" source="pMGXM-O-2ihCk8tD-NnK-124" target="pMGXM-O-2ihCk8tD-NnK-125">
          <mxGeometry relative="1" as="geometry" />
        </mxCell>
        <mxCell id="pMGXM-O-2ihCk8tD-NnK-129" style="edgeStyle=orthogonalEdgeStyle;rounded=0;orthogonalLoop=1;jettySize=auto;html=1;exitX=0.5;exitY=1;exitDx=0;exitDy=0;fontSize=18;" edge="1" parent="1" source="pMGXM-O-2ihCk8tD-NnK-124" target="pMGXM-O-2ihCk8tD-NnK-126">
          <mxGeometry relative="1" as="geometry" />
        </mxCell>
        <mxCell id="pMGXM-O-2ihCk8tD-NnK-124" value="&lt;p class=&quot;MsoNormal&quot; style=&quot;margin-bottom: 0.0001pt; line-height: normal; font-size: 18px;&quot;&gt;&lt;span style=&quot;font-size: 18px; line-height: 107%; font-family: calibri, sans-serif;&quot;&gt;Prem Bdr..&lt;/span&gt;&lt;br style=&quot;font-size: 18px;&quot;&gt;&lt;/p&gt;" style="whiteSpace=wrap;html=1;rounded=1;shadow=1;strokeWidth=1;fontSize=18;align=center;fillColor=#f5f5f5;strokeColor=#666666;" vertex="1" parent="1">
          <mxGeometry x="1250" y="1630" width="242" height="40" as="geometry" />
        </mxCell>
        <mxCell id="pMGXM-O-2ihCk8tD-NnK-125" value="&lt;p class=&quot;MsoNormal&quot; style=&quot;margin-bottom: 0.0001pt; line-height: normal; font-size: 18px;&quot;&gt;&lt;span style=&quot;font-size: 18px; line-height: 107%; font-family: calibri, sans-serif;&quot;&gt;Kaman&lt;/span&gt;&lt;br style=&quot;font-size: 18px;&quot;&gt;&lt;/p&gt;" style="whiteSpace=wrap;html=1;rounded=1;shadow=1;strokeWidth=1;fontSize=18;align=center;fillColor=#f5f5f5;strokeColor=#666666;" vertex="1" parent="1">
          <mxGeometry x="1100" y="1710" width="242" height="40" as="geometry" />
        </mxCell>
        <mxCell id="pMGXM-O-2ihCk8tD-NnK-126" value="&lt;p class=&quot;MsoNormal&quot; style=&quot;margin-bottom: 0.0001pt; line-height: normal; font-size: 18px;&quot;&gt;&lt;span style=&quot;font-size: 18px; line-height: 107%; font-family: calibri, sans-serif;&quot;&gt;Jagat&lt;/span&gt;&lt;br style=&quot;font-size: 18px;&quot;&gt;&lt;/p&gt;" style="whiteSpace=wrap;html=1;rounded=1;shadow=1;strokeWidth=1;fontSize=18;align=center;fillColor=#f5f5f5;strokeColor=#666666;" vertex="1" parent="1">
          <mxGeometry x="1410" y="1710" width="242" height="40" as="geometry" />
        </mxCell>
        <mxCell id="pMGXM-O-2ihCk8tD-NnK-130" value="&lt;p class=&quot;MsoNormal&quot; style=&quot;margin-bottom: 0.0001pt; line-height: normal; font-size: 18px;&quot;&gt;&lt;span style=&quot;font-size: 18px; line-height: 107%; font-family: calibri, sans-serif;&quot;&gt;Bharat (Asam)&lt;/span&gt;&lt;br style=&quot;font-size: 18px;&quot;&gt;&lt;/p&gt;" style="whiteSpace=wrap;html=1;rounded=1;shadow=1;strokeWidth=1;fontSize=18;align=center;fillColor=#f5f5f5;strokeColor=#666666;" vertex="1" parent="1">
          <mxGeometry x="1590" y="1630" width="242" height="40" as="geometry" />
        </mxCell>
        <mxCell id="pMGXM-O-2ihCk8tD-NnK-131" value="&lt;p class=&quot;MsoNormal&quot; style=&quot;margin-bottom: 0.0001pt; line-height: normal; font-size: 18px;&quot;&gt;&lt;span style=&quot;font-size: 18px; line-height: 107%; font-family: calibri, sans-serif;&quot;&gt;Phatik (Asam)&lt;/span&gt;&lt;br style=&quot;font-size: 18px;&quot;&gt;&lt;/p&gt;" style="whiteSpace=wrap;html=1;rounded=1;shadow=1;strokeWidth=1;fontSize=18;align=center;fillColor=#f5f5f5;strokeColor=#666666;" vertex="1" parent="1">
          <mxGeometry x="1860" y="1630" width="242" height="40" as="geometry" />
        </mxCell>
        <mxCell id="pMGXM-O-2ihCk8tD-NnK-132" value="&lt;p class=&quot;MsoNormal&quot; style=&quot;margin-bottom: 0.0001pt; line-height: normal; font-size: 18px;&quot;&gt;&lt;span style=&quot;font-size: 18px; line-height: 107%; font-family: calibri, sans-serif;&quot;&gt;Som Bdr. (Asam)&lt;/span&gt;&lt;br style=&quot;font-size: 18px;&quot;&gt;&lt;/p&gt;" style="whiteSpace=wrap;html=1;rounded=1;shadow=1;strokeWidth=1;fontSize=18;align=center;fillColor=#f5f5f5;strokeColor=#666666;" vertex="1" parent="1">
          <mxGeometry x="2130" y="1630" width="242" height="40" as="geometry" />
        </mxCell>
        <mxCell id="pMGXM-O-2ihCk8tD-NnK-138" value="&lt;p class=&quot;MsoNormal&quot; style=&quot;margin-bottom: 0.0001pt; line-height: normal; font-size: 18px;&quot;&gt;&lt;span style=&quot;font-size: 18px; line-height: 107%; font-family: calibri, sans-serif;&quot;&gt;Chandra&lt;/span&gt;&lt;br style=&quot;font-size: 18px;&quot;&gt;&lt;/p&gt;" style="whiteSpace=wrap;html=1;rounded=1;shadow=1;strokeWidth=1;fontSize=18;align=center;fillColor=#f5f5f5;strokeColor=#666666;" vertex="1" parent="1">
          <mxGeometry x="2440" y="1630" width="242" height="40" as="geometry" />
        </mxCell>
        <mxCell id="pMGXM-O-2ihCk8tD-NnK-140" value="&lt;p class=&quot;MsoNormal&quot; style=&quot;margin-bottom: 0.0001pt; line-height: normal; font-size: 18px;&quot;&gt;&lt;span style=&quot;font-size: 18px; line-height: 107%; font-family: calibri, sans-serif;&quot;&gt;Deukarna Rai&lt;/span&gt;&lt;br style=&quot;font-size: 18px;&quot;&gt;&lt;/p&gt;" style="whiteSpace=wrap;html=1;rounded=1;shadow=1;strokeWidth=1;fontSize=18;align=center;fillColor=#f5f5f5;strokeColor=#666666;" vertex="1" parent="1">
          <mxGeometry x="292" y="600" width="242" height="40" as="geometry" />
        </mxCell>
        <mxCell id="pMGXM-O-2ihCk8tD-NnK-150" style="edgeStyle=orthogonalEdgeStyle;rounded=0;orthogonalLoop=1;jettySize=auto;html=1;exitX=0.5;exitY=1;exitDx=0;exitDy=0;entryX=0.5;entryY=0;entryDx=0;entryDy=0;fontSize=18;" edge="1" parent="1" source="pMGXM-O-2ihCk8tD-NnK-141" target="pMGXM-O-2ihCk8tD-NnK-144">
          <mxGeometry relative="1" as="geometry" />
        </mxCell>
        <mxCell id="pMGXM-O-2ihCk8tD-NnK-141" value="&lt;p class=&quot;MsoNormal&quot; style=&quot;margin-bottom: 0.0001pt; line-height: normal; font-size: 18px;&quot;&gt;&lt;font face=&quot;calibri, sans-serif&quot; style=&quot;font-size: 18px;&quot;&gt;&lt;span style=&quot;font-size: 18px;&quot;&gt;Birbal Rai&lt;/span&gt;&lt;/font&gt;&lt;/p&gt;" style="whiteSpace=wrap;html=1;rounded=1;shadow=1;strokeWidth=1;fontSize=18;align=center;fillColor=#f5f5f5;strokeColor=#666666;" vertex="1" parent="1">
          <mxGeometry x="642" y="600" width="242" height="40" as="geometry" />
        </mxCell>
        <mxCell id="pMGXM-O-2ihCk8tD-NnK-151" style="edgeStyle=orthogonalEdgeStyle;rounded=0;orthogonalLoop=1;jettySize=auto;html=1;exitX=0.5;exitY=1;exitDx=0;exitDy=0;entryX=0.5;entryY=0;entryDx=0;entryDy=0;fontSize=18;" edge="1" parent="1" source="pMGXM-O-2ihCk8tD-NnK-144" target="pMGXM-O-2ihCk8tD-NnK-145">
          <mxGeometry relative="1" as="geometry" />
        </mxCell>
        <mxCell id="pMGXM-O-2ihCk8tD-NnK-144" value="&lt;p class=&quot;MsoNormal&quot; style=&quot;margin-bottom: 0.0001pt; line-height: normal; font-size: 18px;&quot;&gt;&lt;font face=&quot;calibri, sans-serif&quot; style=&quot;font-size: 18px;&quot;&gt;&lt;span style=&quot;font-size: 18px;&quot;&gt;:: Bhat Rai - disconnected&lt;/span&gt;&lt;/font&gt;&lt;/p&gt;" style="whiteSpace=wrap;html=1;rounded=1;shadow=1;strokeWidth=1;fontSize=18;align=center;fillColor=#f5f5f5;strokeColor=#666666;" vertex="1" parent="1">
          <mxGeometry x="642" y="680" width="242" height="40" as="geometry" />
        </mxCell>
        <mxCell id="pMGXM-O-2ihCk8tD-NnK-152" style="edgeStyle=orthogonalEdgeStyle;rounded=0;orthogonalLoop=1;jettySize=auto;html=1;exitX=0.5;exitY=1;exitDx=0;exitDy=0;entryX=0.5;entryY=0;entryDx=0;entryDy=0;fontSize=18;" edge="1" parent="1" source="pMGXM-O-2ihCk8tD-NnK-145" target="pMGXM-O-2ihCk8tD-NnK-146">
          <mxGeometry relative="1" as="geometry" />
        </mxCell>
        <mxCell id="pMGXM-O-2ihCk8tD-NnK-145" value="&lt;p class=&quot;MsoNormal&quot; style=&quot;margin-bottom: 0.0001pt; line-height: normal; font-size: 18px;&quot;&gt;&lt;span style=&quot;font-size: 18px; line-height: 107%; font-family: calibri, sans-serif;&quot;&gt;Khellubahang&lt;/span&gt;&lt;br style=&quot;font-size: 18px;&quot;&gt;&lt;/p&gt;" style="whiteSpace=wrap;html=1;rounded=1;shadow=1;strokeWidth=1;fontSize=18;align=center;fillColor=#f5f5f5;strokeColor=#666666;" vertex="1" parent="1">
          <mxGeometry x="642" y="760" width="242" height="40" as="geometry" />
        </mxCell>
        <mxCell id="pMGXM-O-2ihCk8tD-NnK-153" style="edgeStyle=orthogonalEdgeStyle;rounded=0;orthogonalLoop=1;jettySize=auto;html=1;exitX=0.5;exitY=1;exitDx=0;exitDy=0;fontSize=18;" edge="1" parent="1" source="pMGXM-O-2ihCk8tD-NnK-146" target="pMGXM-O-2ihCk8tD-NnK-147">
          <mxGeometry relative="1" as="geometry" />
        </mxCell>
        <mxCell id="pMGXM-O-2ihCk8tD-NnK-154" style="edgeStyle=orthogonalEdgeStyle;rounded=0;orthogonalLoop=1;jettySize=auto;html=1;exitX=0.5;exitY=1;exitDx=0;exitDy=0;fontSize=18;" edge="1" parent="1" source="pMGXM-O-2ihCk8tD-NnK-146" target="pMGXM-O-2ihCk8tD-NnK-148">
          <mxGeometry relative="1" as="geometry" />
        </mxCell>
        <mxCell id="pMGXM-O-2ihCk8tD-NnK-146" value="&lt;p class=&quot;MsoNormal&quot; style=&quot;margin-bottom: 0.0001pt; line-height: normal; font-size: 18px;&quot;&gt;&lt;span style=&quot;font-size: 18px; line-height: 107%; font-family: calibri, sans-serif;&quot;&gt;Kabi Rai&lt;/span&gt;&lt;br style=&quot;font-size: 18px;&quot;&gt;&lt;/p&gt;" style="whiteSpace=wrap;html=1;rounded=1;shadow=1;strokeWidth=1;fontSize=18;align=center;fillColor=#f5f5f5;strokeColor=#666666;" vertex="1" parent="1">
          <mxGeometry x="642" y="840" width="242" height="40" as="geometry" />
        </mxCell>
        <mxCell id="pMGXM-O-2ihCk8tD-NnK-147" value="&lt;p class=&quot;MsoNormal&quot; style=&quot;margin-bottom: 0.0001pt; line-height: normal; font-size: 18px;&quot;&gt;&lt;span style=&quot;font-size: 18px; line-height: 107%; font-family: calibri, sans-serif;&quot;&gt;Gainanda&amp;nbsp;&lt;/span&gt;&lt;br style=&quot;font-size: 18px;&quot;&gt;&lt;/p&gt;" style="whiteSpace=wrap;html=1;rounded=1;shadow=1;strokeWidth=1;fontSize=18;align=center;fillColor=#f5f5f5;strokeColor=#666666;" vertex="1" parent="1">
          <mxGeometry x="497" y="920" width="242" height="40" as="geometry" />
        </mxCell>
        <mxCell id="pMGXM-O-2ihCk8tD-NnK-156" style="edgeStyle=orthogonalEdgeStyle;rounded=0;orthogonalLoop=1;jettySize=auto;html=1;exitX=0.5;exitY=1;exitDx=0;exitDy=0;fontSize=18;" edge="1" parent="1" source="pMGXM-O-2ihCk8tD-NnK-148" target="pMGXM-O-2ihCk8tD-NnK-149">
          <mxGeometry relative="1" as="geometry" />
        </mxCell>
        <mxCell id="pMGXM-O-2ihCk8tD-NnK-148" value="&lt;p class=&quot;MsoNormal&quot; style=&quot;margin-bottom: 0.0001pt; line-height: normal; font-size: 18px;&quot;&gt;&lt;span style=&quot;font-size: 18px; line-height: 107%; font-family: calibri, sans-serif;&quot;&gt;Pandha Rai&lt;/span&gt;&lt;br style=&quot;font-size: 18px;&quot;&gt;&lt;/p&gt;" style="whiteSpace=wrap;html=1;rounded=1;shadow=1;strokeWidth=1;fontSize=18;align=center;fillColor=#f5f5f5;strokeColor=#666666;" vertex="1" parent="1">
          <mxGeometry x="780" y="920" width="242" height="40" as="geometry" />
        </mxCell>
        <mxCell id="pMGXM-O-2ihCk8tD-NnK-149" value="&lt;p class=&quot;MsoNormal&quot; style=&quot;margin-bottom: 0.0001pt; line-height: normal; font-size: 18px;&quot;&gt;&lt;span style=&quot;font-size: 18px; line-height: 107%; font-family: calibri, sans-serif;&quot;&gt;Amba Singh&lt;/span&gt;&lt;br style=&quot;font-size: 18px;&quot;&gt;&lt;/p&gt;" style="whiteSpace=wrap;html=1;rounded=1;shadow=1;strokeWidth=1;fontSize=18;align=center;fillColor=#f5f5f5;strokeColor=#666666;" vertex="1" parent="1">
          <mxGeometry x="780" y="1000" width="242" height="40" as="geometry" />
        </mxCell>
        <mxCell id="pMGXM-O-2ihCk8tD-NnK-157" value="&lt;b style=&quot;font-size: 18px;&quot;&gt;&lt;font style=&quot;font-size: 18px;&quot;&gt;वि.स. ११९३ चैत्र २५ गते रोज ४ का दिन स्याबुन बस्ने जमदार मानबहादुर राईलाई लिखित बम्सवाली बमोजिम लेखिएको मुडोकहाँको महातारिया गिडु |&lt;/font&gt;&lt;/b&gt;" style="text;whiteSpace=wrap;html=1;align=center;fontSize=18;" vertex="1" parent="1">
          <mxGeometry x="330" y="-460" width="840" height="90" as="geometry" />
        </mxCell>
      </root>
    </mxGraphModel>
  </diagram>
</mxfile>
